vn 0.000000 1.000000 0.000000
v 0.423000000 0.330000000 0.247000000
v 0.265000000 0.330000000 0.296000000
v 0.314000000 0.330000000 0.456000000
v 0.472000000 0.330000000 0.406000000
vn 0.955649 0.000000 -0.294508
v 0.423000000 0.000000 0.247000000
v 0.423000000 0.330000000 0.247000000
v 0.472000000 0.330000000 0.406000000
v 0.472000000 0.000000 0.406000000
vn 0.301709 0.000000 0.953400
v 0.472000000 0.000000 0.406000000
v 0.472000000 0.330000000 0.406000000
v 0.314000000 0.330000000 0.456000000
v 0.314000000 0.000000 0.456000000
vn -0.956166 0.000000 0.292826
v 0.314000000 0.000000 0.456000000
v 0.314000000 0.330000000 0.456000000
v 0.265000000 0.330000000 0.296000000
v 0.265000000 0.000000 0.296000000
vn -0.296209 0.000000 -0.955123
v 0.265000000 0.000000 0.296000000
v 0.265000000 0.330000000 0.296000000
v 0.423000000 0.330000000 0.247000000
v 0.423000000 0.000000 0.247000000

f 1//1 2//1 3//1
f 1//1 3//1 4//1
f 5//2 6//2 7//2
f 5//2 7//2 8//2
f 9//3 10//3 11//3
f 9//3 11//3 12//3
f 13//4 14//4 15//4
f 13//4 15//4 16//4
f 17//5 18//5 19//5
f 17//5 19//5 20//5
